<svg width="24" height="25" viewBox="0 0 24 25" fill="none" xmlns="http://www.w3.org/2000/svg">
<path fill-rule="evenodd" clip-rule="evenodd" d="M14.798 16.7288C14.888 17.0328 14.923 17.3538 14.898 17.6748L14.9 18.1748C14.9 18.5888 14.564 18.9248 14.15 18.9248C13.736 18.9248 13.4 18.5888 13.4 18.1748V17.6158C13.428 17.2338 13.316 16.9238 13.086 16.6828C12.889 16.4768 12.826 16.1768 12.923 15.9088C13.021 15.6408 13.262 15.4518 13.546 15.4198C15.292 15.2268 16.454 14.6198 16.454 12.2798C16.454 11.6938 16.232 11.1388 15.829 10.7168C15.63 10.5088 15.568 10.2068 15.668 9.93679C15.791 9.60679 15.827 9.25679 15.777 8.91679C15.522 9.00379 15.12 9.18179 14.568 9.55179C14.387 9.67479 14.162 9.70879 13.952 9.65279C12.81 9.33979 11.603 9.33979 10.462 9.65279C10.252 9.70879 10.027 9.67479 9.846 9.55179C9.299 9.18579 8.901 9.00779 8.636 8.92079C8.587 9.25979 8.624 9.60879 8.746 9.93779C8.845 10.2068 8.783 10.5078 8.586 10.7148C8.179 11.1428 7.957 11.7038 7.96 12.2938C7.96 14.6038 9.127 15.2218 10.878 15.4398C11.159 15.4748 11.397 15.6658 11.492 15.9328C11.587 16.2008 11.523 16.4988 11.326 16.7038C11.104 16.9348 10.989 17.2488 11.012 17.5628L11.014 18.1018C11.014 18.4328 10.796 18.7258 10.479 18.8208C9.976 18.9708 9.539 19.0348 9.157 19.0348C7.771 19.0348 7.113 18.1998 6.683 17.6528C6.505 17.4278 6.321 17.1948 6.195 17.1638C5.794 17.0628 5.549 16.6558 5.65 16.2538C5.75 15.8528 6.156 15.6058 6.559 15.7078C7.182 15.8638 7.543 16.3218 7.861 16.7248C8.29 17.2678 8.589 17.6538 9.508 17.5108C9.502 17.2518 9.539 16.9898 9.617 16.7338C8.276 16.3808 6.46 15.3968 6.46 12.2978C6.456 11.4718 6.719 10.6798 7.209 10.0258C7.036 9.28879 7.101 8.51579 7.403 7.81079C7.491 7.60479 7.666 7.44979 7.881 7.38579C8.099 7.32079 8.902 7.19779 10.397 8.12279C11.588 7.84879 12.827 7.84879 14.017 8.12279C15.512 7.19879 16.314 7.32279 16.532 7.38579C16.747 7.44979 16.923 7.60479 17.01 7.81079C17.313 8.51579 17.379 9.28779 17.205 10.0248C17.691 10.6718 17.954 11.4578 17.954 12.2798C17.954 15.4168 16.141 16.3898 14.798 16.7288ZM16.22 3.25879H7.78C4.47 3.25879 2.25 5.58879 2.25 9.03879V16.9788C2.25 20.4388 4.47 22.7588 7.78 22.7588H16.22C19.53 22.7588 21.75 20.4388 21.75 16.9788V9.03879C21.75 5.58879 19.53 3.25879 16.22 3.25879Z" fill="white"/>
</svg>
